<?xml version="1.0" encoding="UTF-8"?>
<svg version="1.1" xmlns="http://www.w3.org/2000/svg" width="498" height="136">
<path d="M0 0 C2.64 0 5.28 0 8 0 C8.33 25.74 8.66 51.48 9 78 C20.76926852 66.25191499 20.76926852 66.25191499 32 54 C33.94932492 51.96608836 35.90329273 49.95557977 37.8984375 47.96875 C38.41886627 47.4473645 38.93929504 46.925979 39.47549438 46.38879395 C40.55812067 45.30549553 41.64197687 44.2234249 42.72705078 43.14257812 C44.3960527 41.47901592 46.05954154 39.81007075 47.72265625 38.140625 C48.78092884 37.08301187 49.83951086 36.02570826 50.8984375 34.96875 C51.39628754 34.46887573 51.89413757 33.96900146 52.40707397 33.45397949 C55.88499906 30 55.88499906 30 57 30 C57 50.46 57 70.92 57 92 C54.36 92 51.72 92 49 92 C48.505 71.21 48.505 71.21 48 50 C44.61878906 53.3928125 41.23757812 56.785625 37.75390625 60.28125 C35.61681066 62.42345224 33.4795705 64.56550617 31.34179688 66.70703125 C27.94508846 70.10972851 24.54894303 73.51297535 21.15600586 76.91943359 C18.4219878 79.66427916 15.68556796 82.40670858 12.94743156 85.14744568 C11.90071781 86.19601392 10.85488777 87.24546505 9.80993843 88.29579163 C8.35158142 89.76135726 6.89017634 91.22381468 5.42797852 92.68554688 C4.59524918 93.52049683 3.76251984 94.35544678 2.90455627 95.21569824 C1 97 1 97 0 97 C0 64.99 0 32.98 0 0 Z " fill="#FFFFFF" transform="translate(65,6)"/>
<path d="M0 0 C2.64 0 5.28 0 8 0 C8.33 19.14 8.66 38.28 9 58 C13.29 54.7 17.58 51.4 22 48 C24.511331 46.16740711 27.01928379 44.34790446 29.5625 42.5625 C33.90301949 39.54479679 33.90301949 39.54479679 38.01171875 36.2265625 C40.8153118 34.49703751 42.99214211 34.7062655 46.25 34.8125 C47.86648438 34.85310547 47.86648438 34.85310547 49.515625 34.89453125 C50.33546875 34.92933594 51.1553125 34.96414062 52 35 C52 35.66 52 36.32 52 37 C49.57725759 38.85539134 47.14378636 40.59545736 44.625 42.3125 C43.07610933 43.38568959 41.5279583 44.45994729 39.98046875 45.53515625 C39.16884277 46.09734863 38.3572168 46.65954102 37.52099609 47.23876953 C33.29130866 50.1937342 29.11486236 53.22172716 24.9375 56.25 C24.14617676 56.82274658 23.35485352 57.39549316 22.53955078 57.9855957 C20.6924116 59.32287527 18.84587809 60.66098054 17 62 C20.89726803 66.0543556 25.05518218 69.60599455 29.4375 73.125 C30.13037109 73.68541992 30.82324219 74.24583984 31.53710938 74.82324219 C36.91995386 79.16527279 42.35219622 83.44384766 47.83374023 87.66064453 C49.24005502 88.75149149 50.62289863 89.87249825 52 91 C52 91.33 52 91.66 52 92 C47.02905005 92.89179833 41.80473871 93.59061988 37.23583984 90.99951172 C33.48783895 88.20682116 30.17428683 84.93387332 26.81884766 81.68994141 C23.79228472 78.8778785 20.52646122 76.38657158 17.25 73.875 C11.22359467 69.22359467 11.22359467 69.22359467 9 67 C8.67 75.25 8.34 83.5 8 92 C5.36 92 2.72 92 0 92 C0 61.64 0 31.28 0 0 Z " fill="#FFFFFF" transform="translate(254,6)"/>
<path d="M0 0 C7.875 6.75 7.875 6.75 11.55834961 10.44482422 C12.37867172 11.26522186 13.19899384 12.08561951 14.04417419 12.93087769 C14.90487015 13.79673492 15.7655661 14.66259216 16.65234375 15.5546875 C17.55247696 16.45623566 18.45261017 17.35778381 19.38002014 18.28665161 C21.75072823 20.66198217 24.11924515 23.03945405 26.48669434 25.41802979 C28.91180725 27.85344713 31.33979328 30.28599669 33.76757812 32.71875 C38.51480528 37.47610781 43.25726365 42.23814828 48 47 C48.33 33.14 48.66 19.28 49 5 C51.64 5 54.28 5 57 5 C57 25.46 57 45.92 57 67 C49.125 60.25 49.125 60.25 45.44165039 56.55517578 C44.21116722 55.32457932 44.21116722 55.32457932 42.95582581 54.06912231 C42.09512985 53.20326508 41.2344339 52.33740784 40.34765625 51.4453125 C39.44752304 50.54376434 38.54738983 49.64221619 37.61997986 48.71334839 C35.24927177 46.33801783 32.88075485 43.96054595 30.51330566 41.58197021 C28.08819275 39.14655287 25.66020672 36.71400331 23.23242188 34.28125 C18.48519472 29.52389219 13.74273635 24.76185172 9 20 C8.67 33.86 8.34 47.72 8 62 C5.36 62 2.72 62 0 62 C0 41.54 0 21.08 0 0 Z " fill="#FFFFFF" transform="translate(175,36)"/>
<path d="M0 0 C2.64 0 5.28 0 8 0 C16.78191057 15.43549928 24.90033105 31.19996441 33 47 C33.66 47 34.32 47 35 47 C35.39155273 46.28682617 35.78310547 45.57365234 36.18652344 44.83886719 C39.74716429 38.3640299 43.33212692 31.90384737 46.94960022 25.46061707 C49.12828173 21.57568822 51.26517822 17.67044957 53.38671875 13.75390625 C54.40182985 11.93908721 55.41864322 10.12521883 56.4375 8.3125 C56.88383789 7.46461914 57.33017578 6.61673828 57.79003906 5.74316406 C59.06056525 3.53116213 60.13432919 1.74054515 62 0 C64.97042744 -0.70763456 66.91286254 -0.43913292 70 0 C68.37738951 6.17005391 65.05971317 11.26606583 61.8125 16.6875 C56.56826094 25.55146332 51.46930949 34.47909239 46.5 43.5 C40.05831953 55.17308038 33.44463601 66.73744046 26.63110352 78.19775391 C25.45245587 80.22267797 24.31165883 82.26979533 23.19506836 84.32958984 C22.59315674 85.42352051 21.99124512 86.51745117 21.37109375 87.64453125 C20.83154053 88.6497583 20.2919873 89.65498535 19.73608398 90.69067383 C18 93 18 93 15.79321289 93.7565918 C13.5625 93.75 13.5625 93.75 10 93 C11.31116423 88.696743 12.97596675 84.96429682 15.1875 81.05078125 C16.11175781 79.40819336 16.11175781 79.40819336 17.0546875 77.73242188 C17.69664062 76.60384766 18.33859375 75.47527344 19 74.3125 C19.64195312 73.17232422 20.28390625 72.03214844 20.9453125 70.85742188 C25.65293195 62.52060208 25.65293195 62.52060208 28 59 C27.67644239 54.67218531 26.43267345 51.41821665 24.41015625 47.61328125 C23.87769287 46.60120605 23.34522949 45.58913086 22.79663086 44.54638672 C22.22436768 43.4792041 21.65210449 42.41202148 21.0625 41.3125 C20.47927979 40.20922363 19.89605957 39.10594727 19.29516602 37.96923828 C18.10541023 35.71973691 16.91230257 33.47200508 15.71582031 31.22607422 C14.15047799 28.28292774 12.59865809 25.33330621 11.0546875 22.37890625 C6.53041892 13.66235823 6.53041892 13.66235823 1.72265625 5.1015625 C0 2 0 2 0 0 Z " fill="#FFFFFF" transform="translate(424,41)"/>
<path d="M0 0 C0 2.97 0 5.94 0 9 C-0.71542969 9.39791748 -1.43085938 9.79583496 -2.16796875 10.20581055 C-4.86013733 11.70448298 -7.55125139 13.20502805 -10.24169922 14.70678711 C-11.96372892 15.66726938 -13.68693044 16.62564974 -15.41015625 17.58398438 C-17.06337891 18.50727539 -17.06337891 18.50727539 -18.75 19.44921875 C-19.75546875 20.00955811 -20.7609375 20.56989746 -21.796875 21.1472168 C-25.58621743 23.33908568 -29.28780035 25.67987522 -33 28 C-16.665 28.495 -16.665 28.495 0 29 C0 31.64 0 34.28 0 37 C-11.22 37.33 -22.44 37.66 -34 38 C-26.18019848 42.34138636 -26.18019848 42.34138636 -18.35571289 46.67431641 C-13.42513355 49.42353157 -8.51184904 52.20380412 -3.71875 55.1875 C-3.00783203 55.62707031 -2.29691406 56.06664062 -1.56445312 56.51953125 C0 58 0 58 0.54882812 60.13671875 C0.5625 62.375 0.5625 62.375 0 66 C-4.25940292 64.71298617 -7.84119093 63.09145852 -11.6484375 60.796875 C-13.26431763 59.83007812 -13.26431763 59.83007812 -14.9128418 58.84375 C-16.06690539 58.14585128 -17.22095788 57.44793422 -18.375 56.75 C-20.17204554 55.67206317 -21.9703716 54.59628512 -23.76878357 53.52062988 C-24.99814428 52.78519297 -26.22711493 52.04910364 -27.45570374 51.31237793 C-33.83588855 47.48910756 -40.25816671 43.7399581 -46.6875 40 C-47.72632324 39.39510742 -48.76514648 38.79021484 -49.83544922 38.16699219 C-52.22313118 36.77712923 -54.6112809 35.38807944 -57 34 C-55.74327861 30.22983584 -54.70437669 29.99288597 -51.27734375 28.13671875 C-50.27477539 27.58604736 -49.27220703 27.03537598 -48.23925781 26.46801758 C-47.14967773 25.88044678 -46.06009766 25.29287598 -44.9375 24.6875 C-42.65909743 23.4368228 -40.38178231 22.18416281 -38.10546875 20.9296875 C-37.52100983 20.60863541 -36.9365509 20.28758331 -36.3343811 19.95680237 C-30.07908079 16.51272916 -23.91043182 12.92313 -17.75 9.3125 C-16.74573975 8.7249292 -15.74147949 8.1373584 -14.70678711 7.53198242 C-9.48296658 4.47795663 -9.48296658 4.47795663 -4.32128906 1.32104492 C-2 0 -2 0 0 0 Z " fill="#FFFFFF" transform="translate(367,37)"/>
<path d="M0 0 C2.64 0 5.28 0 8 0 C8 8.91 8 17.82 8 27 C15.59 27 23.18 27 31 27 C31 29.64 31 32.28 31 35 C23.41 35 15.82 35 8 35 C8 51.17 8 67.34 8 84 C5.36 84 2.72 84 0 84 C0 67.83 0 51.66 0 35 C-5.61 35 -11.22 35 -17 35 C-17 32.36 -17 29.72 -17 27 C-11.39 27 -5.78 27 0 27 C0 18.09 0 9.18 0 0 Z " fill="#FFFFFF" transform="translate(21,14)"/>
<path d="M0 0 C1.98 1.65 3.96 3.3 6 5 C2.41329772 9.51635541 -1.46369002 13.37002919 -5.80078125 17.16015625 C-19.95379282 28.93961345 -19.95379282 28.93961345 -26.03198242 45.54077148 C-25.98645547 49.75323108 -25.73222808 53.84905839 -25 58 C-27.64 58 -30.28 58 -33 58 C-33 39.19 -33 20.38 -33 1 C-30.36 1 -27.72 1 -25 1 C-24.67 8.59 -24.34 16.18 -24 24 C-16.08 16.08 -8.16 8.16 0 0 Z " fill="#FFFFFF" transform="translate(415,40)"/>
<path d="M0 0 C2.64 0 5.28 0 8 0 C8 18.81 8 37.62 8 57 C5.36 57 2.72 57 0 57 C0 38.19 0 19.38 0 0 Z " fill="#FFFFFF" transform="translate(144,41)"/>
<path d="M0 0 C1 1 1 1 1.25 3.875 C1 7 1 7 -0.1875 8.875 C-2.65507108 10.40659584 -4.14519831 10.42822025 -7 10 C-8.875 8.9375 -8.875 8.9375 -10 7 C-9.9375 3.4375 -9.9375 3.4375 -9 0 C-5.79032072 -2.86578508 -3.58848064 -1.8427333 0 0 Z " fill="#FFFFFF" transform="translate(153,21)"/>
</svg>
